<?xml version="1.0" encoding="UTF-8"?>
<svg preserveAspectRatio="xMidYMid slice" xmlns="http://www.w3.org/2000/svg" width="225px" height="225px" viewBox="0 0 52 52" fill="none">
  <path d="M25.9884 23.5439C22.2635 23.5439 19.237 26.5704 19.237 30.2953C19.237 30.5979 19.4698 30.8307 19.7725 30.8307C20.0751 30.8307 20.3079 30.5979 20.3079 30.2953C20.3079 27.1524 22.8688 24.6148 25.9884 24.6148C29.1312 24.6148 31.6688 27.1757 31.6688 30.2953C31.6688 30.5979 31.9016 30.8307 32.2042 30.8307C32.5069 30.8307 32.7397 30.5979 32.7397 30.2953C32.763 26.5704 29.7132 23.5439 25.9884 23.5439Z" fill="black"></path>
  <path d="M25.9883 26.7334C24.0328 26.7334 22.4264 28.3397 22.4264 30.2953C22.4264 30.598 22.6592 30.8308 22.9619 30.8308C23.2645 30.8308 23.4973 30.598 23.4973 30.2953C23.4973 28.9218 24.6148 27.8043 25.9883 27.8043C27.3619 27.8043 28.4794 28.9218 28.4794 30.2953C28.4794 30.598 28.7122 30.8308 29.0148 30.8308C29.3174 30.8308 29.5503 30.598 29.5503 30.2953C29.5503 28.3397 27.9672 26.7334 25.9883 26.7334Z" fill="black"></path>
  <path d="M25.9884 0.263672C11.7873 0.263672 0.240204 11.8108 0.240204 25.9885C0.240204 40.1896 11.7873 51.7367 25.9884 51.7367C40.1894 51.7367 51.7365 40.1896 51.7365 25.9885C51.7365 11.8108 40.1894 0.263672 25.9884 0.263672ZM25.9884 50.6658C12.3926 50.6658 1.3111 39.6076 1.3111 25.9885C1.3111 12.3695 12.3693 1.31129 25.9884 1.31129C39.6074 1.31129 50.6656 12.3695 50.6656 25.9885C50.6656 39.6076 39.6074 50.6658 25.9884 50.6658Z" fill="black"></path>
  <path d="M25.9883 20.3545C20.4942 20.3545 16.0243 24.8243 16.0243 30.3185C16.0243 30.6212 16.2571 30.854 16.5598 30.854C16.8624 30.854 17.0952 30.6212 17.0952 30.3185C17.0952 25.4063 21.0762 21.4254 25.9883 21.4254C30.9005 21.4254 34.8815 25.4063 34.8815 30.3185C34.8815 30.6212 35.1143 30.854 35.4169 30.854C35.7196 30.854 35.9524 30.6212 35.9524 30.3185C35.9524 24.8243 31.4825 20.3545 25.9883 20.3545Z" fill="black"></path>
  <path d="M25.9884 17.1416C18.7249 17.1416 12.8349 23.0315 12.8349 30.295C12.8349 30.5977 13.0677 30.8305 13.3704 30.8305C13.673 30.8305 13.9058 30.5977 13.9058 30.295C13.9058 23.6368 19.3302 18.2125 25.9884 18.2125C32.6466 18.2125 38.0709 23.6368 38.0709 30.295C38.0709 30.5977 38.3037 30.8305 38.6063 30.8305C38.909 30.8305 39.1418 30.5977 39.1418 30.295C39.1418 23.0548 33.2518 17.1416 25.9884 17.1416Z" fill="black"></path>
</svg>
