<?xml version="1.0" encoding="UTF-8"?>
<svg preserveAspectRatio="xMidYMid slice" xmlns="http://www.w3.org/2000/svg" width="225px" height="225px" viewBox="0 0 52 52" fill="none">
  <path d="M25.9884 0.263672C11.7873 0.263672 0.240234 11.8108 0.240234 26.0118C0.240234 40.2129 11.7873 51.76 25.9884 51.76C40.1894 51.76 51.7365 40.2129 51.7365 26.0118C51.7365 11.8108 40.1894 0.263672 25.9884 0.263672ZM25.9884 50.6658C12.3926 50.6658 1.31113 39.6076 1.31113 25.9885C1.31113 12.3695 12.3693 1.31129 25.9884 1.31129C39.6074 1.31129 50.6656 12.3695 50.6656 25.9885C50.6656 39.6076 39.6074 50.6658 25.9884 50.6658Z" fill="black"></path>
  <path d="M25.9884 25.0107C24.9641 25.0107 24.126 25.8488 24.126 26.8732C24.126 27.8975 24.9641 28.7356 25.9884 28.7356C27.0127 28.7356 27.8508 27.8975 27.8508 26.8732C27.8508 25.8488 27.0127 25.0107 25.9884 25.0107ZM25.9884 27.6647C25.5461 27.6647 25.1969 27.3155 25.1969 26.8732C25.1969 26.4308 25.5461 26.0816 25.9884 26.0816C26.4307 26.0816 26.7799 26.4308 26.7799 26.8732C26.8032 27.3155 26.4307 27.6647 25.9884 27.6647Z" fill="black"></path>
  <path d="M33.7175 19.0046C32.0646 19.3306 30.7376 20.4015 30.0392 21.8681C29.8762 21.7284 29.69 21.612 29.5038 21.4724C30.5514 20.4946 31.1567 19.1443 31.1567 17.6776C31.1567 16.1877 30.5281 14.7909 29.4339 13.8131C28.3397 12.8353 26.9196 12.3697 25.453 12.556C23.1249 12.812 21.2159 14.721 20.9598 17.0724C20.7736 18.7485 21.3789 20.3549 22.5895 21.4724C22.3799 21.612 22.1704 21.7517 21.9842 21.9147C21.4022 20.611 20.2847 19.5866 18.8879 19.1443C17.4911 18.702 15.9545 18.8649 14.6741 19.6099C13.3937 20.3549 12.5323 21.5655 12.2297 23.0089C11.7408 25.3136 12.9747 27.6882 15.1164 28.666C15.8149 28.9919 16.5598 29.1316 17.2815 29.1316C18.1662 29.1316 19.0508 28.8755 19.8424 28.4332C19.9122 28.6893 19.9821 28.9454 20.0752 29.1782C18.6318 29.3179 17.3048 30.0628 16.4434 31.2734C15.5821 32.4607 15.2794 33.9507 15.5821 35.394C15.8847 36.8142 16.7926 38.048 18.0731 38.793C18.8646 39.2353 19.726 39.4681 20.5873 39.4681C21.9842 39.4681 23.381 38.9094 24.3588 37.8152C25.4995 36.5813 25.9418 34.8819 25.5926 33.2755C25.7556 33.2755 25.8953 33.2988 26.0582 33.2988C26.1747 33.2988 26.2911 33.2755 26.4307 33.2755C26.1514 34.6724 26.4307 36.1623 27.2921 37.3263C28.1535 38.5136 29.4805 39.2819 30.9239 39.4216C31.0868 39.4448 31.2731 39.4448 31.436 39.4448C32.7165 39.4448 33.9503 38.9559 34.9048 38.0946C36.6508 36.5115 37.0699 33.8575 35.9059 31.7856C35.0911 30.3189 33.6477 29.3877 32.0413 29.2015C32.1344 28.9686 32.2043 28.7358 32.2741 28.503C33.0424 28.9221 33.8805 29.1549 34.7418 29.1549C35.2773 29.1549 35.8127 29.0618 36.3482 28.8988C37.745 28.4565 38.8858 27.4089 39.4911 26.0819C40.0963 24.7316 40.0731 23.2417 39.4678 21.8914C38.4434 19.7496 36.0455 18.539 33.7175 19.0046ZM22.0075 17.212C22.217 15.3496 23.7302 13.8364 25.5694 13.6269C25.7323 13.6036 25.872 13.6036 26.035 13.6036C27.036 13.6036 27.9672 13.9528 28.7122 14.6279C29.5736 15.3962 30.0858 16.5369 30.0858 17.7009C30.0858 18.9813 29.4805 20.1686 28.5027 20.9602C27.8508 20.6808 27.1291 20.5179 26.3842 20.4946V16.9094C26.3842 16.6067 26.1514 16.3739 25.8487 16.3739C25.5461 16.3739 25.3133 16.6067 25.3133 16.9094V20.5179C24.708 20.5877 24.126 20.7507 23.5672 20.9602C22.4498 20.0755 21.8445 18.6787 22.0075 17.212ZM16.7461 23.4745C16.4667 23.4046 16.1641 23.5676 16.0942 23.847C16.0244 24.1263 16.1873 24.429 16.4667 24.4988L19.8191 25.43C19.7027 25.8956 19.6561 26.3612 19.6561 26.8501C19.6561 26.9898 19.6794 27.1528 19.6794 27.2925C18.4921 28.1306 16.9323 28.2935 15.5821 27.6882C13.8826 26.92 12.9048 25.0343 13.3006 23.2184C13.5334 22.0776 14.2318 21.1231 15.2329 20.5179C15.8614 20.1454 16.5831 19.9591 17.3048 19.9591C17.7239 19.9591 18.1662 20.029 18.562 20.1686C19.7958 20.5644 20.7503 21.5189 21.1694 22.7295C20.7503 23.2417 20.4011 23.8004 20.145 24.429L16.7461 23.4745ZM23.544 37.0935C22.2868 38.4671 20.1916 38.793 18.5852 37.8618C17.5609 37.2798 16.8625 36.3253 16.6064 35.1612C16.3503 34.0205 16.6064 32.8332 17.2815 31.902C18.0498 30.8311 19.2836 30.2258 20.5641 30.2258C20.9133 30.7845 21.3556 31.2967 21.8445 31.739L19.8889 34.5327C19.726 34.7655 19.7725 35.1147 20.0286 35.2776C20.1217 35.3475 20.2381 35.3708 20.3313 35.3708C20.4942 35.3708 20.6572 35.3009 20.7736 35.138L22.7291 32.3676C23.2413 32.6935 23.8233 32.9263 24.4286 33.0893C24.8709 34.4861 24.545 35.9993 23.544 37.0935ZM26.035 32.2279C23.0784 32.2279 20.6805 29.83 20.6805 26.8734C20.6805 23.9168 23.0784 21.5189 26.035 21.5189C28.9916 21.5189 31.3895 23.9168 31.3895 26.8734C31.3895 29.83 28.9916 32.2279 26.035 32.2279ZM34.9514 32.321C35.8593 33.9507 35.5334 36.0459 34.1598 37.3263C33.2985 38.1179 32.181 38.4903 31.017 38.3739C29.8762 38.2575 28.8286 37.6522 28.1535 36.721C27.4085 35.6734 27.199 34.3464 27.5715 33.1126C28.2233 32.9496 28.8286 32.6935 29.3641 32.3676L31.3196 35.138C31.4127 35.2776 31.599 35.3708 31.762 35.3708C31.8784 35.3708 31.9715 35.3475 32.0646 35.2776C32.2974 35.1147 32.3672 34.7655 32.2043 34.5327L30.2487 31.739C30.7609 31.2967 31.1799 30.8078 31.5291 30.2258C32.926 30.2724 34.253 31.0406 34.9514 32.321ZM38.4667 25.6395C38.0011 26.7104 37.0932 27.5253 35.9757 27.8745C34.7651 28.2702 33.4614 28.0607 32.4138 27.3856C32.4371 27.2226 32.4371 27.0597 32.4371 26.8734C32.4371 26.3845 32.3672 25.8956 32.2741 25.4533L35.6265 24.5221C35.9059 24.4522 36.0688 24.1496 35.999 23.8702C35.9291 23.5909 35.6265 23.4279 35.3471 23.4977L31.9715 24.4522C31.6921 23.8004 31.3196 23.2184 30.8773 22.6829C31.3662 21.356 32.5069 20.3549 33.927 20.0755C35.7662 19.703 37.6752 20.6808 38.4434 22.357C38.9323 23.4046 38.9556 24.5919 38.4667 25.6395Z" fill="black"></path>
  <path d="M29.8762 28.1067C30.7143 27.4781 31.0635 26.3606 30.7376 25.3363C30.4116 24.3119 29.4571 23.6368 28.4095 23.5903C28.0603 22.6125 27.1058 21.9141 26.0349 21.9141C24.964 21.9141 24.0095 22.6125 23.6603 23.5903C22.6127 23.6135 21.6582 24.3119 21.3323 25.3363C21.0064 26.3606 21.3788 27.4781 22.1937 28.1067C21.891 29.1077 22.2635 30.2252 23.1249 30.8537C23.9862 31.4823 25.1735 31.4823 26.0349 30.9003C26.454 31.1797 26.9661 31.3426 27.4783 31.3426C27.9905 31.3426 28.5026 31.1797 28.945 30.877C29.8296 30.2252 30.1788 29.1077 29.8762 28.1067ZM28.9915 27.4082C28.8519 27.4781 28.7587 27.5945 28.7122 27.7109C28.6656 27.8506 28.6889 27.9903 28.7587 28.1299C29.0847 28.7585 28.8984 29.5733 28.3397 29.9924C27.7577 30.4114 26.9429 30.3416 26.4307 29.8294C26.3376 29.7363 26.1979 29.6664 26.0582 29.6664C25.9185 29.6664 25.7788 29.713 25.6857 29.8294C25.1735 30.3416 24.3587 30.4114 23.7767 29.9924C23.1947 29.5733 23.0085 28.7818 23.3577 28.1299C23.4275 28.0135 23.4275 27.8506 23.4042 27.7109C23.3577 27.5712 23.2646 27.4548 23.1249 27.4082C22.473 27.0823 22.1471 26.3373 22.3799 25.6622C22.6127 24.9871 23.2878 24.568 24.0095 24.6844C24.1492 24.7077 24.2889 24.6844 24.4053 24.5913C24.5217 24.4982 24.5915 24.3818 24.6148 24.2421C24.7312 23.5204 25.3365 22.985 26.0582 22.985C26.7799 22.985 27.3852 23.5204 27.5016 24.2421C27.5249 24.3818 27.5947 24.5215 27.7111 24.5913C27.8275 24.6844 27.9672 24.7077 28.1069 24.6844C28.8286 24.568 29.527 24.9871 29.7365 25.6622C29.946 26.3373 29.6434 27.1056 28.9915 27.4082Z" fill="black"></path>
</svg>
