<?xml version="1.0" encoding="UTF-8"?>
<svg preserveAspectRatio="xMidYMid slice" xmlns="http://www.w3.org/2000/svg" width="225px" height="225px" viewBox="0 0 222 222" fill="none">
  <path d="M110.7 0.200012C49.7 0.200012 0.0999756 49.8 0.0999756 110.8C0.0999756 171.8 49.7 221.4 110.7 221.4C171.7 221.4 221.3 171.8 221.3 110.8C221.3 49.8 171.7 0.200012 110.7 0.200012ZM110.7 216.7C52.3 216.7 4.69998 169.2 4.69998 110.7C4.69998 52.2 52.2 4.70001 110.7 4.70001C169.2 4.70001 216.7 52.2 216.7 110.7C216.7 169.2 169.2 216.7 110.7 216.7Z" fill="black"></path>
  <path d="M169.5 85.6H151.4C149.4 83.3 146.6 81.5 143.4 80.9C139.7 80.2 135.9 81 132.8 83.1C132.6 83.2 132.5 83.4 132.3 83.5C132.2 83.6 132.1 83.6 132 83.6L131.3 84.2C131.1 84.4 130.9 84.5 130.7 84.7L120.5 93.9L95.3 65.6C94.7 65 93.9 64.7 93 64.9C92.2 65.1 91.5 65.8 91.3 66.6C91.1 67.6 87.3 84.1 90.1 98.1C86.2 98.1 81.4 98.1 76.8 98.1H64.7C64.5 98.1 64.3 98.1 64.3 98.1C63.4 98.1 62.5 98.7 62.2 99.5C61.9 100.4 62.1 101.4 62.8 102C63.4 102.5 75.1 113.4 89.2 121.8L73.3 136.1C72.7 136.6 72.5 137.4 72.6 138.1C72.7 138.9 73.2 139.5 73.9 139.8C74 139.9 74.6 140.1 75.6 140.5L56.8 156.3C56.1 156.9 55.8 157.8 56.1 158.7C56.3 159.6 57 160.2 57.9 160.4C58.2 160.5 60.4 160.8 63.9 160.8C72 160.8 87.1 158.9 101.3 146.8C103.4 147 105.6 147.1 107.8 147.1C112.1 147.1 116.6 146.7 121.1 145.7C133.9 142.9 143.5 131.8 144.7 118.8H144.8C145.4 118.9 146.1 119 146.7 119C148.7 119 150.6 118.4 152.2 117.3C154.4 115.8 155.9 113.6 156.4 111C157.1 107.4 155.7 103.8 153 101.6C153.4 100.8 153.8 100 154.1 99.2L170.7 89.7C171.6 89.2 172 88.1 171.8 87.1C171.5 86.3 170.6 85.6 169.5 85.6ZM107.9 102.7C110.4 102.7 112.2 102.7 112.9 102.7C119.6 102.7 125.1 108 125.1 114.6C125.1 121.1 119.6 126.5 112.9 126.5C111.9 126.5 110.9 126.4 109.8 126.1C109.7 126.1 109.6 126.1 109.5 126C107.6 125.5 105.7 124.9 103.6 124.1C108.2 121.9 111.5 117.2 111.5 111.8C111.5 108.3 110.1 105.1 107.9 102.7ZM94.9 72.2L117 97L115.5 98.4C114.6 98.3 113.8 98.2 112.9 98.2C111.5 98.2 105.6 98.3 98.6 98.2H98.5C98.4 98.2 98.3 98.2 98.2 98.2C98.1 98.2 98 98.2 97.9 98.2C97.8 98.2 97.8 98.2 97.7 98.2C97.2 98.2 96.2 98.2 94.7 98.2C92.7 89.1 93.9 78.2 94.9 72.2ZM70.8 102.7C77.7 102.7 88.9 102.7 98 102.7C102.9 102.8 106.9 106.9 106.9 111.7C106.9 117.1 102.1 121.5 96.6 120.7C86.3 115.4 76.3 107.4 70.8 102.7ZM80.5 142.6C82.6 143.3 85 144 87.8 144.7C85 146.5 78.9 149.8 70.4 151L80.5 142.6ZM64.1 156.3L66.8 154.1C81.6 153.1 90.4 146.2 91.3 145.5C92.4 145.7 93.6 146 94.8 146.2C83 154.6 70.9 156.2 64.1 156.3ZM136.1 102.2C138.7 106.4 140.1 111.2 140.1 116.1C140.1 128.2 131.6 138.8 119.9 141.4C103.2 145.1 86 139.8 79 137.2L93.4 124.3C94 124.6 94.6 125 95.2 125.3C100 127.8 104.5 129.5 108.6 130.5C108.7 130.5 108.8 130.5 108.9 130.5C110.3 130.8 111.6 131 112.9 131C122.1 131 129.7 123.6 129.7 114.6C129.7 108.2 126 102.7 120.6 100L132.9 89C133.6 88.4 134.9 87.4 136.6 86.6C136.7 86.6 136.8 86.5 136.9 86.5C137 86.4 137.2 86.4 137.3 86.3C138.4 85.9 139.5 85.6 140.7 85.6C141.3 85.6 141.9 85.7 142.5 85.8C147.5 86.8 150.8 91.6 149.8 96.6C149.6 97.7 149.1 98.8 148.6 99.7C148.6 99.7 148.6 99.7 148.5 99.7C145.7 99.2 143 99.9 140.9 101.4C140.6 100.9 140.3 100.4 140 99.9C139.3 98.8 137.9 98.5 136.8 99.2C135.7 99.7 135.4 101.2 136.1 102.2ZM151.8 110.3C151.5 111.7 150.7 112.9 149.6 113.7C148.4 114.5 147 114.8 145.6 114.5C145.3 114.4 145 114.3 144.7 114.2C144.5 111.2 143.9 108.3 142.9 105.6C143.9 104.6 145.2 104 146.6 104C146.9 104 147.3 104 147.6 104.1C150.4 104.6 152.3 107.4 151.8 110.3ZM154.8 93.7C154.7 92.5 154.5 91.3 154.1 90.2H161L154.8 93.7Z" fill="black"></path>
  <path d="M140.3 94.3C141.5 94.2 142.4 93.1 142.3 91.9C142.2 90.7 141.1 89.8 139.9 89.9C138.7 90 137.8 91.1 137.9 92.3C138 93.6 139.1 94.4 140.3 94.3Z" fill="black"></path>
</svg>
