<?xml version="1.0" encoding="UTF-8"?>
<svg preserveAspectRatio="xMidYMid slice" xmlns="http://www.w3.org/2000/svg" width="225px" height="225px" viewBox="0 0 52 52" fill="none">
  <path d="M25.9883 0.426758C11.7873 0.426758 0.263481 11.904 0.263481 26.0119C0.263481 40.1199 11.8106 51.5971 25.9883 51.5971C40.1894 51.5971 51.7365 40.1199 51.7365 26.0119C51.7365 11.904 40.1894 0.426758 25.9883 0.426758ZM25.9883 50.503C12.3926 50.503 1.3111 39.5146 1.3111 25.9887C1.3111 12.4627 12.3926 1.47438 25.9883 1.47438C39.5841 1.47438 50.6656 12.4627 50.6656 25.9887C50.6656 39.5146 39.6074 50.503 25.9883 50.503Z" fill="black"></path>
  <path d="M24.4751 33.5781C24.1492 32.3908 22.6593 31.4596 22.4963 31.3432C22.3799 31.2734 22.2402 31.2501 22.1005 31.2734C21.9609 31.2967 21.8445 31.3898 21.7746 31.5295C21.6815 31.6924 20.8201 33.2057 21.1693 34.5094C21.2857 34.975 21.5884 35.3475 21.9841 35.5803C22.2402 35.7199 22.5196 35.8131 22.8222 35.8131C22.9852 35.8131 23.1249 35.7898 23.2878 35.7432C24.1725 35.4871 24.7079 34.5094 24.4751 33.5781ZM22.9852 34.7189C22.8222 34.7654 22.6593 34.7422 22.4963 34.649C22.3333 34.5559 22.2169 34.4162 22.1704 34.23C22.0307 33.7411 22.2169 33.066 22.4265 32.6004C22.8455 32.9263 23.3344 33.4152 23.4508 33.8575C23.5439 34.23 23.3344 34.6258 22.9852 34.7189Z" fill="black"></path>
  <path d="M28.8286 38.8164C28.5026 37.6291 27.0127 36.6979 26.8497 36.5815C26.7333 36.5117 26.5936 36.4884 26.454 36.5117C26.3143 36.5349 26.1979 36.6281 26.128 36.7677C26.0349 36.9307 25.1735 38.4439 25.5227 39.7476C25.6391 40.2133 25.9418 40.5857 26.3608 40.8185C26.6169 40.9582 26.8963 41.0514 27.1989 41.0514C27.3619 41.0514 27.5016 41.0281 27.6645 40.9815C28.5259 40.7021 29.0614 39.7476 28.8286 38.8164ZM27.3153 39.9572C27.1524 40.0037 26.9894 39.9805 26.8264 39.8873C26.6635 39.7942 26.5471 39.6545 26.5005 39.4683C26.3608 38.9794 26.5471 38.3043 26.7566 37.8386C27.1757 38.1646 27.6645 38.6535 27.7809 39.0958C27.8973 39.4683 27.6878 39.8408 27.3153 39.9572Z" fill="black"></path>
  <path d="M31.9481 33.5781C31.6222 32.3908 30.1323 31.4596 29.9693 31.3432C29.8529 31.2734 29.7132 31.2501 29.5735 31.2734C29.4338 31.2967 29.3174 31.3898 29.2476 31.5295C29.1545 31.6924 28.2931 33.2057 28.6423 34.4861C28.7587 34.9517 29.0614 35.3242 29.4571 35.557C29.7132 35.6967 29.9926 35.7898 30.2952 35.7898C30.4582 35.7898 30.5979 35.7665 30.7608 35.7199C31.6455 35.4871 32.2042 34.5094 31.9481 33.5781ZM30.4582 34.7189C30.2952 34.7654 30.1323 34.7422 29.9693 34.649C29.8063 34.5559 29.6899 34.4162 29.6434 34.23C29.5037 33.7411 29.6899 33.066 29.8995 32.6004C30.3185 32.9263 30.8074 33.4152 30.9238 33.8575C31.0169 34.23 30.8074 34.6258 30.4582 34.7189Z" fill="black"></path>
  <path d="M31.4127 13.8135C29.2476 13.8135 27.3852 15.0241 26.4307 16.7934C25.7555 16.5606 25.0571 16.4442 24.3122 16.4442C21.4254 16.4442 18.9111 18.2833 18.0497 20.9606H18.0032C15.6518 20.9606 13.7196 22.8696 13.7196 25.1976C13.7196 27.5257 15.6518 29.4347 18.0032 29.4347H30.6212C32.9958 29.4347 34.9048 27.5257 34.9048 25.1976C34.9048 24.8018 34.8349 24.4061 34.7418 24.0336C36.1619 23.0093 37.0698 21.3563 37.0698 19.4706C37.0931 16.351 34.5323 13.8135 31.4127 13.8135ZM30.6212 28.3637H18.0032C16.2339 28.3637 14.7672 26.9436 14.7672 25.1976C14.7672 23.4516 16.2106 22.0315 18.0032 22.0315H18.4455C18.6783 22.0315 18.9111 21.8685 18.9577 21.6357C19.563 19.2145 21.7746 17.5151 24.3122 17.5151C26.8497 17.5151 29.0381 19.2145 29.6667 21.6357C29.7365 21.8685 29.946 22.0315 30.1788 22.0315H30.6212C32.3905 22.0315 33.8571 23.4516 33.8571 25.1976C33.8571 26.9436 32.4137 28.3637 30.6212 28.3637ZM34.3227 23.0558C33.5778 21.8219 32.2042 20.9839 30.6444 20.9839H30.5979C30.0624 19.3309 28.8984 18.004 27.4317 17.2357C28.2233 15.8389 29.7132 14.8844 31.436 14.8844C33.9735 14.8844 36.0455 16.9563 36.0455 19.4939C36.0222 20.914 35.3471 22.1944 34.3227 23.0558Z" fill="black"></path>
</svg>
