<?xml version="1.0" encoding="UTF-8"?>
<svg preserveAspectRatio="xMidYMid slice" xmlns="http://www.w3.org/2000/svg" fill="none" height="282px" viewBox="0 0 36 45" width="225px">
  <g fill="#fff">
    <path d="m28.127 9.21059c-5.0596-4.92299-11.1125-7.63375-19.61766-8.802179-.17072-.031158-.35697.031159-.48113.140212-.13968.109054-.21728.280423-.21728.451797-.20177 5.42151-1.92452 9.30068-3.58519 13.05528-2.18836 4.9541-4.2680758 9.6279-2.82469 17.1993.9157 4.7828 3.67831 8.7243 7.79118 11.0923 2.56087 1.4644 5.43207 2.2122 8.34987 2.2122 1.9711 0 3.9422-.3427 5.8667-1.0282 5.8046-2.0876 9.7468-6.7146 11.1125-13.0397 1.6141-7.5714-.8846-15.9218-6.3943-21.28101zm-15.5669 11.32601c0-1.4021.0156-4.3622.0156-5.6396h1.6141v7.7116h-1.5831c-.0466-.592-.0466-1.2775-.0466-2.072zm10.3365.4829c0 .592 0 1.1061-.0155 1.5735h-1.8935v-7.7116h1.909zm-3.1506 1.5891h-1.5365v-7.7116h1.5365zm-2.7781 0h-1.5365v-7.7116h1.5365zm5.7735 1.2463c-.0776.3739-.2172.6855-.4035.9192-.5742.6855-1.9245.9815-4.5164.9815-3.43 0-4.625-.4362-5.0286-1.9007zm10.5538 6.3563c-1.2726 5.8889-4.9354 10.2043-10.321 12.1361-1.552.5608-3.1661.8724-4.7647.9347v-16.2801c2.7937-.0312 4.2526-.4362 5.0752-1.4177.8536-1.0282.8536-2.5082.8536-4.5491v-6.7613c0-.1714-.0621-.3272-.1863-.4362-.1241-.1247-.2793-.187-.4345-.187h-11.5627c-.3414 0-.6208.2805-.6208.6232 0 0-.0155 4.44-.0155 6.2784 0 4.3933.2328 6.2939 5.6494 6.4653v16.2957c-2.4988-.0935-4.9665-.779-7.15486-2.0409-3.80247-2.181-6.34779-5.811-7.18589-10.2354-1.36578-7.1976.62081-11.6999 2.73157-16.4515 1.64515-3.7078 3.33686-7.52472 3.66279-12.82161 7.88429 1.18401 13.53369 3.78572 18.25189 8.36601 5.1993 5.032 7.5583 12.9306 6.0218 20.0814z"></path>
    <path d="m9.78202 29.4629c-.32592.0156-.57425.2805-.58977.592 0 .1247-.10864 2.9133 1.61415 4.627 1.5054 1.5112 3.849 1.6203 4.4698 1.6203h.1552c.3259-.0156.5898-.2805.5898-.592 0-.1247.1086-2.9133-1.6141-4.627-1.7228-1.7293-4.51644-1.6358-4.62508-1.6203zm3.72488 2.4927c.9002.9036 1.1485 2.2745 1.2261 3.0691-.7915-.0623-2.1573-.3272-3.0575-1.2308s-1.1485-2.2745-1.2261-3.0691c.7915.0779 2.1573.3272 3.0575 1.2308z"></path>
    <path d="m25.3023 29.4633c-.1242 0-2.9023-.1091-4.6251 1.6202-1.7072 1.7137-1.6141 4.5024-1.6141 4.627.0155.3272.2794.5764.5898.592h.1552c.6208 0 2.9488-.1091 4.4698-1.6202 1.7073-1.7137 1.6141-4.5024 1.6141-4.627-.0155-.3272-.2638-.592-.5897-.592zm-1.8935 4.331c-.9002.9036-2.2815 1.1528-3.0575 1.2307.0621-.7945.3104-2.1499 1.2261-3.0691.9002-.9036 2.266-1.1528 3.0575-1.2307-.0776.7945-.3259 2.1655-1.2261 3.0691z"></path>
  </g>
</svg>
