<?xml version="1.0" encoding="UTF-8"?>
<svg preserveAspectRatio="xMidYMid slice" xmlns="http://www.w3.org/2000/svg" width="225px" height="225px" viewBox="0 0 52 53" fill="none">
  <path d="M25.9884 0.539062C11.7873 0.539062 0.240234 12.1902 0.240234 26.5119C0.240234 40.8336 11.7873 52.4847 25.9884 52.4847C40.1894 52.4847 51.7133 40.8336 51.7133 26.5119C51.7133 12.1902 40.1894 0.539062 25.9884 0.539062ZM25.9884 51.374C12.3926 51.374 1.31113 40.2191 1.31113 26.4883C1.31113 12.7574 12.3926 1.60256 25.9884 1.60256C39.5842 1.60256 50.6656 12.7574 50.6656 26.4883C50.6656 40.2191 39.6074 51.374 25.9884 51.374Z" fill="black"></path>
  <path d="M35.58 31.6166C35.3239 31.4512 35.0212 31.5457 34.8583 31.782C34.3228 32.6328 33.6244 33.3418 32.8329 33.8381C31.2964 34.5944 30.5747 33.8854 29.271 32.3256C28.4561 31.3803 27.5482 30.2931 26.1747 29.6314C22.8688 28.0007 20.0286 28.5207 16.3736 31.3566C16.1641 31.5221 16.0942 31.8057 16.2339 32.042C18.2128 35.6579 21.9842 37.903 26.0815 37.903C30.0392 37.903 33.7408 35.776 35.7662 32.3492C35.9059 32.1129 35.836 31.782 35.58 31.6166ZM26.0815 36.8395C22.5196 36.8395 19.2371 34.9725 17.3979 31.9475C21.0297 29.2533 23.3577 29.466 25.7323 30.624C26.8964 31.1912 27.7112 32.1365 28.4794 33.0582C29.0382 33.7199 29.6202 34.4053 30.2953 34.8071C27.8043 35.2088 24.871 34.358 21.9842 32.3965C21.7514 32.2311 21.4022 32.302 21.2392 32.5383C21.0763 32.7746 21.1461 33.1291 21.3789 33.2945C24.4752 35.3979 27.6413 36.296 30.3884 35.8942C29.0382 36.485 27.5715 36.8395 26.0815 36.8395Z" fill="black"></path>
  <path d="M16.4201 22.8958C16.6762 23.0612 16.9788 22.9667 17.1418 22.7304C17.6772 21.8796 18.3756 21.1706 19.1672 20.6743C20.7037 19.918 21.4254 20.627 22.7291 22.1868C23.5439 23.1321 24.4518 24.2192 25.8254 24.881C27.0592 25.4954 28.2233 25.8027 29.4106 25.8027C31.3661 25.8027 33.345 24.9282 35.6264 23.1558C35.836 22.9903 35.9058 22.7067 35.7661 22.4704C33.7873 18.8545 29.9926 16.6094 25.9185 16.6094C21.9608 16.6094 18.2592 18.7364 16.2338 22.1632C16.0942 22.4231 16.164 22.7304 16.4201 22.8958ZM25.9185 17.6729C29.4571 17.6729 32.7629 19.5399 34.6021 22.5649C30.9703 25.2591 28.6423 25.07 26.2677 23.912C25.1037 23.3448 24.2889 22.3995 23.5206 21.4778C22.9619 20.8161 22.3799 20.1307 21.7047 19.7289C24.1957 19.3272 27.1291 20.178 30.0159 22.1395C30.2487 22.305 30.5979 22.2341 30.7608 21.9977C30.9238 21.7614 30.8539 21.4069 30.6211 21.2415C27.5248 19.1381 24.3587 18.2401 21.6116 18.6418C22.9386 18.0274 24.4053 17.6729 25.9185 17.6729Z" fill="black"></path>
</svg>
