<?xml version="1.0" encoding="UTF-8"?>
<svg preserveAspectRatio="xMidYMid slice" xmlns="http://www.w3.org/2000/svg" width="225px" height="225px" viewBox="0 0 52 52" fill="none">
  <path d="M27.1058 10.8332C26.8498 10.3909 26.4074 10.1348 25.872 10.1348C25.3598 10.1348 24.8942 10.4141 24.6614 10.8565L19.6328 19.3073C19.4931 19.5633 19.563 19.8893 19.8191 20.0289C20.0752 20.1686 20.4011 20.0988 20.5408 19.8427L25.5926 11.3686C25.6857 11.2057 25.8254 11.1824 25.8953 11.1824C25.9651 11.1824 26.1048 11.2057 26.1979 11.3453L33.764 24.3358C34.7418 25.8491 35.2773 27.5951 35.2773 29.411C35.2773 34.5326 31.1101 38.6766 26.0117 38.6766C20.9365 38.6766 16.8159 34.6025 16.7461 29.5506C16.8159 26.0819 19.6561 23.3115 23.1249 23.3115C26.5238 23.3115 29.2942 25.9655 29.4804 29.3178L28.2 28.0374C27.9905 27.8279 27.6646 27.8279 27.455 28.0374C27.2455 28.2469 27.2455 28.5729 27.455 28.7824L29.5968 30.9242C29.8064 31.1337 30.1323 31.1337 30.3418 30.9242L32.4836 28.7824C32.6931 28.5729 32.6931 28.2469 32.4836 28.0374C32.2741 27.8279 31.9482 27.8279 31.7386 28.0374L30.5746 29.2014C30.3185 25.3369 27.0826 22.2406 23.1482 22.2406C19.1672 22.2406 15.908 25.3834 15.7217 29.3178C15.7217 29.3411 15.7217 29.3877 15.7217 29.411C15.7217 29.4575 15.7217 29.5041 15.7217 29.5506C15.7217 29.5972 15.7217 29.6438 15.7217 29.667C15.7217 29.6903 15.7217 29.7136 15.7217 29.7369C15.908 35.2776 20.4709 39.7242 26.0582 39.7242C31.7619 39.7242 36.3947 35.0914 36.3947 29.3877C36.3947 27.3623 35.8127 25.4067 34.7185 23.7538L27.1058 10.8332Z" fill="black"></path>
  <path d="M25.9884 0.263672C11.7873 0.263672 0.240234 11.8108 0.240234 26.0118C0.240234 40.2129 11.7873 51.76 25.9884 51.76C40.1894 51.76 51.7365 40.2129 51.7365 26.0118C51.7365 11.8108 40.1894 0.263672 25.9884 0.263672ZM25.9884 50.6658C12.3926 50.6658 1.31113 39.6076 1.31113 25.9885C1.31113 12.3695 12.3693 1.31129 25.9884 1.31129C39.6074 1.31129 50.6656 12.3695 50.6656 25.9885C50.6656 39.6076 39.6074 50.6658 25.9884 50.6658Z" fill="black"></path>
</svg>
