<?xml version="1.0" encoding="UTF-8"?>
<svg preserveAspectRatio="xMidYMid slice" xmlns="http://www.w3.org/2000/svg" width="225px" height="225px" viewBox="0 0 49 49" fill="none">
  <path d="M24.4892 0.864258C11.364 0.864258 0.69165 11.472 0.69165 24.5112C0.69165 37.5503 11.364 48.1581 24.4892 48.1581C37.6144 48.1581 48.2652 37.5503 48.2652 24.5112C48.2652 11.472 37.6144 0.864258 24.4892 0.864258ZM24.4892 47.1468C11.9234 47.1468 1.68142 36.9909 1.68142 24.4897C1.68142 11.9884 11.9234 1.83251 24.4892 1.83251C37.055 1.83251 47.2969 11.9884 47.2969 24.4897C47.2969 36.9909 37.0765 47.1468 24.4892 47.1468Z" fill="white"></path>
  <path d="M33.3541 29.1583C33.1174 29.0077 32.8377 29.0938 32.6871 29.3089C32.1922 30.0835 31.5467 30.729 30.8151 31.1809C29.395 31.8694 28.728 31.2239 27.523 29.8038C26.77 28.9431 25.9308 27.9534 24.6613 27.3509C21.6059 25.8663 18.9809 26.3396 15.6028 28.9216C15.4091 29.0723 15.3446 29.3305 15.4737 29.5456C17.3026 32.8377 20.7883 34.8818 24.5752 34.8818C28.2331 34.8818 31.6543 32.9453 33.5262 29.8253C33.6553 29.6102 33.5908 29.3089 33.3541 29.1583ZM24.5752 33.9135C21.2832 33.9135 18.2493 32.2137 16.5495 29.4596C19.9061 27.0066 22.0578 27.2003 24.2525 28.2546C25.3283 28.771 26.0814 29.6317 26.7915 30.4708C27.3079 31.0733 27.8458 31.6973 28.4698 32.0631C26.1675 32.4289 23.4564 31.6543 20.7883 29.8684C20.5731 29.7178 20.2504 29.7823 20.0998 29.9975C19.9491 30.2126 20.0137 30.5354 20.2289 30.686C23.0906 32.601 26.0169 33.4186 28.5558 33.0529C27.3079 33.5908 25.9523 33.9135 24.5752 33.9135Z" fill="white"></path>
  <path d="M15.6457 21.2195C15.8824 21.3702 16.1621 21.2841 16.3127 21.0689C16.8076 20.2943 17.4531 19.6488 18.1847 19.197C19.6048 18.5084 20.2718 19.1539 21.4767 20.574C22.2298 21.4347 23.069 22.4245 24.3385 23.0269C25.4789 23.5864 26.5547 23.8661 27.6521 23.8661C29.4595 23.8661 31.2884 23.07 33.397 21.4562C33.5907 21.3056 33.6552 21.0474 33.5261 20.8322C31.6972 17.5402 28.19 15.4961 24.4245 15.4961C20.7667 15.4961 17.3455 17.4326 15.4736 20.5525C15.3445 20.7892 15.409 21.0689 15.6457 21.2195ZM24.4245 16.4643C27.6951 16.4643 30.7505 18.1642 32.4503 20.9183C29.0937 23.3712 26.942 23.1991 24.7473 22.1448C23.6715 21.6284 22.9184 20.7677 22.2083 19.9285C21.6919 19.3261 21.154 18.7021 20.53 18.3363C22.8323 17.9705 25.5434 18.7451 28.2115 20.531C28.4267 20.6816 28.7494 20.6171 28.9 20.4019C29.0506 20.1867 28.9861 19.864 28.7709 19.7134C25.9092 17.7984 22.9829 16.9807 20.4439 17.3465C21.6704 16.7871 23.026 16.4643 24.4245 16.4643Z" fill="white"></path>
</svg>
